<mxfile host="app.diagrams.net" modified="2021-09-30T03:32:38.284Z" agent="5.0 (Windows NT 10.0; Win64; x64) AppleWebKit/537.36 (KHTML, like Gecko) Chrome/94.0.4606.61 Safari/537.36 Edg/94.0.992.31" etag="zdQZ3m8BLlFkNoCezXwD" version="15.3.8" type="github">
  <diagram id="C5RBs43oDa-KdzZeNtuy" name="Page-1">
    <mxGraphModel dx="1851" dy="736" grid="1" gridSize="10" guides="1" tooltips="1" connect="1" arrows="1" fold="1" page="1" pageScale="1" pageWidth="827" pageHeight="1169" math="0" shadow="0">
      <root>
        <mxCell id="WIyWlLk6GJQsqaUBKTNV-0" />
        <mxCell id="WIyWlLk6GJQsqaUBKTNV-1" parent="WIyWlLk6GJQsqaUBKTNV-0" />
        <mxCell id="FcOtWMT2dwPaxTevbI-8-0" value="General User" style="rounded=0;whiteSpace=wrap;html=1;" vertex="1" parent="WIyWlLk6GJQsqaUBKTNV-1">
          <mxGeometry x="130" y="320" width="120" height="60" as="geometry" />
        </mxCell>
        <mxCell id="FcOtWMT2dwPaxTevbI-8-1" value="Login/ Signup&amp;nbsp;" style="ellipse;whiteSpace=wrap;html=1;aspect=fixed;" vertex="1" parent="WIyWlLk6GJQsqaUBKTNV-1">
          <mxGeometry x="290" y="610" width="100" height="100" as="geometry" />
        </mxCell>
        <mxCell id="FcOtWMT2dwPaxTevbI-8-2" value="" style="curved=1;endArrow=classic;html=1;entryX=0;entryY=0;entryDx=0;entryDy=0;exitX=0.325;exitY=1.017;exitDx=0;exitDy=0;exitPerimeter=0;" edge="1" parent="WIyWlLk6GJQsqaUBKTNV-1" source="FcOtWMT2dwPaxTevbI-8-0" target="FcOtWMT2dwPaxTevbI-8-1">
          <mxGeometry width="50" height="50" relative="1" as="geometry">
            <mxPoint x="180" y="630" as="sourcePoint" />
            <mxPoint x="230" y="580" as="targetPoint" />
            <Array as="points">
              <mxPoint x="260" y="510" />
            </Array>
          </mxGeometry>
        </mxCell>
        <mxCell id="FcOtWMT2dwPaxTevbI-8-7" value="Login authentication&amp;nbsp;" style="edgeLabel;html=1;align=center;verticalAlign=middle;resizable=0;points=[];rotation=59;" vertex="1" connectable="0" parent="FcOtWMT2dwPaxTevbI-8-2">
          <mxGeometry x="-0.1045" y="19" relative="1" as="geometry">
            <mxPoint x="53" y="-53" as="offset" />
          </mxGeometry>
        </mxCell>
        <mxCell id="FcOtWMT2dwPaxTevbI-8-3" value="Admin User" style="rounded=0;whiteSpace=wrap;html=1;" vertex="1" parent="WIyWlLk6GJQsqaUBKTNV-1">
          <mxGeometry x="540" y="720" width="120" height="60" as="geometry" />
        </mxCell>
        <mxCell id="FcOtWMT2dwPaxTevbI-8-4" value="Staff User" style="rounded=0;whiteSpace=wrap;html=1;" vertex="1" parent="WIyWlLk6GJQsqaUBKTNV-1">
          <mxGeometry x="550" y="410" width="120" height="60" as="geometry" />
        </mxCell>
        <mxCell id="FcOtWMT2dwPaxTevbI-8-5" value="" style="curved=1;endArrow=classic;html=1;entryX=0.886;entryY=0.166;entryDx=0;entryDy=0;exitX=0.051;exitY=0.995;exitDx=0;exitDy=0;exitPerimeter=0;entryPerimeter=0;" edge="1" parent="WIyWlLk6GJQsqaUBKTNV-1" source="FcOtWMT2dwPaxTevbI-8-4" target="FcOtWMT2dwPaxTevbI-8-1">
          <mxGeometry width="50" height="50" relative="1" as="geometry">
            <mxPoint x="559" y="500" as="sourcePoint" />
            <mxPoint x="674.6446609406726" y="613.6246609406726" as="targetPoint" />
            <Array as="points">
              <mxPoint x="550" y="568.98" />
            </Array>
          </mxGeometry>
        </mxCell>
        <mxCell id="FcOtWMT2dwPaxTevbI-8-14" value="Login Authentication&amp;nbsp;" style="edgeLabel;html=1;align=center;verticalAlign=middle;resizable=0;points=[];rotation=-38;" vertex="1" connectable="0" parent="FcOtWMT2dwPaxTevbI-8-5">
          <mxGeometry x="0.2109" y="-12" relative="1" as="geometry">
            <mxPoint x="21" y="-20" as="offset" />
          </mxGeometry>
        </mxCell>
        <mxCell id="FcOtWMT2dwPaxTevbI-8-6" value="" style="curved=1;endArrow=classic;html=1;entryX=1;entryY=0.5;entryDx=0;entryDy=0;exitX=0.677;exitY=-0.014;exitDx=0;exitDy=0;exitPerimeter=0;" edge="1" parent="WIyWlLk6GJQsqaUBKTNV-1" source="FcOtWMT2dwPaxTevbI-8-3" target="FcOtWMT2dwPaxTevbI-8-1">
          <mxGeometry width="50" height="50" relative="1" as="geometry">
            <mxPoint x="540" y="630" as="sourcePoint" />
            <mxPoint x="363.5" y="754.5" as="targetPoint" />
            <Array as="points">
              <mxPoint x="531" y="698.98" />
            </Array>
          </mxGeometry>
        </mxCell>
        <mxCell id="FcOtWMT2dwPaxTevbI-8-23" value="Login Authentication&amp;nbsp;" style="edgeLabel;html=1;align=center;verticalAlign=middle;resizable=0;points=[];rotation=15;" vertex="1" connectable="0" parent="FcOtWMT2dwPaxTevbI-8-6">
          <mxGeometry x="-0.1649" y="2" relative="1" as="geometry">
            <mxPoint x="-24" y="-9" as="offset" />
          </mxGeometry>
        </mxCell>
        <mxCell id="FcOtWMT2dwPaxTevbI-8-8" value="" style="curved=1;endArrow=classic;html=1;entryX=1;entryY=0.75;entryDx=0;entryDy=0;exitX=0.5;exitY=0;exitDx=0;exitDy=0;" edge="1" parent="WIyWlLk6GJQsqaUBKTNV-1" source="FcOtWMT2dwPaxTevbI-8-1" target="FcOtWMT2dwPaxTevbI-8-0">
          <mxGeometry width="50" height="50" relative="1" as="geometry">
            <mxPoint x="349" y="440" as="sourcePoint" />
            <mxPoint x="464.6446609406727" y="553.6246609406726" as="targetPoint" />
            <Array as="points">
              <mxPoint x="340" y="508.98" />
              <mxPoint x="340" y="480" />
            </Array>
          </mxGeometry>
        </mxCell>
        <mxCell id="FcOtWMT2dwPaxTevbI-8-9" value="Invalid Login." style="edgeLabel;html=1;align=center;verticalAlign=middle;resizable=0;points=[];rotation=60;" vertex="1" connectable="0" parent="FcOtWMT2dwPaxTevbI-8-8">
          <mxGeometry x="-0.1045" y="19" relative="1" as="geometry">
            <mxPoint x="-91" y="-7" as="offset" />
          </mxGeometry>
        </mxCell>
        <mxCell id="FcOtWMT2dwPaxTevbI-8-11" value="" style="curved=1;endArrow=classic;html=1;exitX=0.69;exitY=1.036;exitDx=0;exitDy=0;exitPerimeter=0;entryX=0.203;entryY=0.1;entryDx=0;entryDy=0;entryPerimeter=0;" edge="1" parent="WIyWlLk6GJQsqaUBKTNV-1" source="FcOtWMT2dwPaxTevbI-8-0" target="FcOtWMT2dwPaxTevbI-8-1">
          <mxGeometry width="50" height="50" relative="1" as="geometry">
            <mxPoint x="250" y="580" as="sourcePoint" />
            <mxPoint x="300" y="530" as="targetPoint" />
            <Array as="points">
              <mxPoint x="290" y="510" />
              <mxPoint x="310" y="580" />
            </Array>
          </mxGeometry>
        </mxCell>
        <mxCell id="FcOtWMT2dwPaxTevbI-8-12" value="Sign up for account" style="edgeLabel;html=1;align=center;verticalAlign=middle;resizable=0;points=[];rotation=59;" vertex="1" connectable="0" parent="FcOtWMT2dwPaxTevbI-8-11">
          <mxGeometry x="-0.1478" y="-1" relative="1" as="geometry">
            <mxPoint y="-8" as="offset" />
          </mxGeometry>
        </mxCell>
        <mxCell id="FcOtWMT2dwPaxTevbI-8-15" value="" style="curved=1;endArrow=classic;html=1;entryX=0.429;entryY=1.017;entryDx=0;entryDy=0;entryPerimeter=0;exitX=0.97;exitY=0.325;exitDx=0;exitDy=0;exitPerimeter=0;" edge="1" parent="WIyWlLk6GJQsqaUBKTNV-1" source="FcOtWMT2dwPaxTevbI-8-1" target="FcOtWMT2dwPaxTevbI-8-4">
          <mxGeometry width="50" height="50" relative="1" as="geometry">
            <mxPoint x="670" y="740" as="sourcePoint" />
            <mxPoint x="720" y="690" as="targetPoint" />
            <Array as="points">
              <mxPoint x="460" y="630" />
              <mxPoint x="530" y="580" />
              <mxPoint x="620" y="590" />
            </Array>
          </mxGeometry>
        </mxCell>
        <mxCell id="FcOtWMT2dwPaxTevbI-8-16" value="Invalid Login" style="edgeLabel;html=1;align=center;verticalAlign=middle;resizable=0;points=[];rotation=-91;" vertex="1" connectable="0" parent="FcOtWMT2dwPaxTevbI-8-15">
          <mxGeometry x="-0.1507" y="-6" relative="1" as="geometry">
            <mxPoint x="78" y="-46" as="offset" />
          </mxGeometry>
        </mxCell>
        <mxCell id="FcOtWMT2dwPaxTevbI-8-17" value="Notification&amp;nbsp;" style="ellipse;whiteSpace=wrap;html=1;aspect=fixed;" vertex="1" parent="WIyWlLk6GJQsqaUBKTNV-1">
          <mxGeometry x="-20" y="650" width="80" height="80" as="geometry" />
        </mxCell>
        <mxCell id="FcOtWMT2dwPaxTevbI-8-18" value="" style="curved=1;endArrow=classic;html=1;entryX=0;entryY=0.75;entryDx=0;entryDy=0;exitX=0.783;exitY=0.087;exitDx=0;exitDy=0;exitPerimeter=0;" edge="1" parent="WIyWlLk6GJQsqaUBKTNV-1" source="FcOtWMT2dwPaxTevbI-8-17" target="FcOtWMT2dwPaxTevbI-8-0">
          <mxGeometry width="50" height="50" relative="1" as="geometry">
            <mxPoint x="100" y="660" as="sourcePoint" />
            <mxPoint x="120" y="600" as="targetPoint" />
            <Array as="points">
              <mxPoint x="50" y="630" />
              <mxPoint x="60" y="600" />
              <mxPoint x="60" y="530" />
            </Array>
          </mxGeometry>
        </mxCell>
        <mxCell id="FcOtWMT2dwPaxTevbI-8-22" value="Notify user of upcoming appointment" style="edgeLabel;html=1;align=center;verticalAlign=middle;resizable=0;points=[];rotation=-78;" vertex="1" connectable="0" parent="FcOtWMT2dwPaxTevbI-8-18">
          <mxGeometry x="-0.3081" y="-10" relative="1" as="geometry">
            <mxPoint y="-33" as="offset" />
          </mxGeometry>
        </mxCell>
        <mxCell id="FcOtWMT2dwPaxTevbI-8-19" value="Database" style="rounded=0;whiteSpace=wrap;html=1;" vertex="1" parent="WIyWlLk6GJQsqaUBKTNV-1">
          <mxGeometry x="270" y="960" width="120" height="60" as="geometry" />
        </mxCell>
        <mxCell id="FcOtWMT2dwPaxTevbI-8-20" value="" style="curved=1;endArrow=classic;html=1;exitX=0;exitY=0.5;exitDx=0;exitDy=0;entryX=0.269;entryY=0.981;entryDx=0;entryDy=0;entryPerimeter=0;" edge="1" parent="WIyWlLk6GJQsqaUBKTNV-1" source="FcOtWMT2dwPaxTevbI-8-19" target="FcOtWMT2dwPaxTevbI-8-17">
          <mxGeometry width="50" height="50" relative="1" as="geometry">
            <mxPoint x="170" y="960" as="sourcePoint" />
            <mxPoint x="220" y="910" as="targetPoint" />
            <Array as="points">
              <mxPoint x="220" y="960" />
              <mxPoint x="130" y="920" />
            </Array>
          </mxGeometry>
        </mxCell>
        <mxCell id="FcOtWMT2dwPaxTevbI-8-21" value="Upcoming appointments Data" style="edgeLabel;html=1;align=center;verticalAlign=middle;resizable=0;points=[];rotation=50;" vertex="1" connectable="0" parent="FcOtWMT2dwPaxTevbI-8-20">
          <mxGeometry x="0.2034" y="-11" relative="1" as="geometry">
            <mxPoint x="13" y="19" as="offset" />
          </mxGeometry>
        </mxCell>
        <mxCell id="FcOtWMT2dwPaxTevbI-8-30" value="" style="curved=1;endArrow=classic;html=1;exitX=1.01;exitY=0.67;exitDx=0;exitDy=0;exitPerimeter=0;" edge="1" parent="WIyWlLk6GJQsqaUBKTNV-1" source="FcOtWMT2dwPaxTevbI-8-1">
          <mxGeometry width="50" height="50" relative="1" as="geometry">
            <mxPoint x="470" y="780" as="sourcePoint" />
            <mxPoint x="540" y="730" as="targetPoint" />
            <Array as="points">
              <mxPoint x="470" y="730" />
            </Array>
          </mxGeometry>
        </mxCell>
        <mxCell id="FcOtWMT2dwPaxTevbI-8-31" value="Invalid Login" style="edgeLabel;html=1;align=center;verticalAlign=middle;resizable=0;points=[];rotation=15;" vertex="1" connectable="0" parent="FcOtWMT2dwPaxTevbI-8-30">
          <mxGeometry x="0.0299" y="3" relative="1" as="geometry">
            <mxPoint x="-5" y="-12" as="offset" />
          </mxGeometry>
        </mxCell>
        <mxCell id="FcOtWMT2dwPaxTevbI-8-33" value="&lt;b&gt;Book Appointment&amp;nbsp;&lt;/b&gt;" style="ellipse;whiteSpace=wrap;html=1;aspect=fixed;" vertex="1" parent="WIyWlLk6GJQsqaUBKTNV-1">
          <mxGeometry x="110" y="670" width="100" height="100" as="geometry" />
        </mxCell>
        <mxCell id="FcOtWMT2dwPaxTevbI-8-34" value="" style="curved=1;endArrow=classic;html=1;entryX=0.5;entryY=0;entryDx=0;entryDy=0;exitX=0.25;exitY=1;exitDx=0;exitDy=0;" edge="1" parent="WIyWlLk6GJQsqaUBKTNV-1" source="FcOtWMT2dwPaxTevbI-8-0" target="FcOtWMT2dwPaxTevbI-8-33">
          <mxGeometry width="50" height="50" relative="1" as="geometry">
            <mxPoint x="120" y="590" as="sourcePoint" />
            <mxPoint x="170" y="540" as="targetPoint" />
            <Array as="points">
              <mxPoint x="170" y="590" />
              <mxPoint x="170" y="560" />
            </Array>
          </mxGeometry>
        </mxCell>
        <mxCell id="FcOtWMT2dwPaxTevbI-8-35" value="Fill out Online PCR Form and select date" style="edgeLabel;html=1;align=center;verticalAlign=middle;resizable=0;points=[];rotation=87;" vertex="1" connectable="0" parent="FcOtWMT2dwPaxTevbI-8-34">
          <mxGeometry x="-0.228" y="3" relative="1" as="geometry">
            <mxPoint as="offset" />
          </mxGeometry>
        </mxCell>
        <mxCell id="FcOtWMT2dwPaxTevbI-8-38" value="" style="curved=1;endArrow=classic;html=1;entryX=0.1;entryY=-0.012;entryDx=0;entryDy=0;entryPerimeter=0;exitX=0.333;exitY=0.972;exitDx=0;exitDy=0;exitPerimeter=0;" edge="1" parent="WIyWlLk6GJQsqaUBKTNV-1" source="FcOtWMT2dwPaxTevbI-8-33" target="FcOtWMT2dwPaxTevbI-8-19">
          <mxGeometry width="50" height="50" relative="1" as="geometry">
            <mxPoint x="230" y="890" as="sourcePoint" />
            <mxPoint x="280" y="840" as="targetPoint" />
            <Array as="points">
              <mxPoint x="280" y="890" />
            </Array>
          </mxGeometry>
        </mxCell>
        <mxCell id="FcOtWMT2dwPaxTevbI-8-39" value="Insert Query for appoint schedule" style="edgeLabel;html=1;align=center;verticalAlign=middle;resizable=0;points=[];rotation=50;" vertex="1" connectable="0" parent="FcOtWMT2dwPaxTevbI-8-38">
          <mxGeometry x="0.0663" y="-6" relative="1" as="geometry">
            <mxPoint x="-20" y="-12" as="offset" />
          </mxGeometry>
        </mxCell>
        <mxCell id="FcOtWMT2dwPaxTevbI-8-40" value="" style="curved=1;endArrow=classic;html=1;" edge="1" parent="WIyWlLk6GJQsqaUBKTNV-1">
          <mxGeometry width="50" height="50" relative="1" as="geometry">
            <mxPoint x="300" y="960" as="sourcePoint" />
            <mxPoint x="310" y="700" as="targetPoint" />
            <Array as="points">
              <mxPoint x="290" y="900" />
            </Array>
          </mxGeometry>
        </mxCell>
        <mxCell id="FcOtWMT2dwPaxTevbI-8-41" value="Login Data" style="edgeLabel;html=1;align=center;verticalAlign=middle;resizable=0;points=[];rotation=91;" vertex="1" connectable="0" parent="FcOtWMT2dwPaxTevbI-8-40">
          <mxGeometry x="-0.2902" y="-9" relative="1" as="geometry">
            <mxPoint x="-2" y="-29" as="offset" />
          </mxGeometry>
        </mxCell>
        <mxCell id="FcOtWMT2dwPaxTevbI-8-42" value="" style="curved=1;endArrow=classic;html=1;entryX=0.5;entryY=0;entryDx=0;entryDy=0;exitX=0.395;exitY=0.995;exitDx=0;exitDy=0;exitPerimeter=0;" edge="1" parent="WIyWlLk6GJQsqaUBKTNV-1" source="FcOtWMT2dwPaxTevbI-8-1" target="FcOtWMT2dwPaxTevbI-8-19">
          <mxGeometry width="50" height="50" relative="1" as="geometry">
            <mxPoint x="340" y="810" as="sourcePoint" />
            <mxPoint x="390" y="760" as="targetPoint" />
            <Array as="points">
              <mxPoint x="330" y="790" />
            </Array>
          </mxGeometry>
        </mxCell>
        <mxCell id="FcOtWMT2dwPaxTevbI-8-43" value="User Data" style="edgeLabel;html=1;align=center;verticalAlign=middle;resizable=0;points=[];rotation=90;" vertex="1" connectable="0" parent="FcOtWMT2dwPaxTevbI-8-42">
          <mxGeometry x="0.4411" y="1" relative="1" as="geometry">
            <mxPoint y="1" as="offset" />
          </mxGeometry>
        </mxCell>
        <mxCell id="FcOtWMT2dwPaxTevbI-8-44" value="Create Staff user" style="ellipse;whiteSpace=wrap;html=1;aspect=fixed;" vertex="1" parent="WIyWlLk6GJQsqaUBKTNV-1">
          <mxGeometry x="390" y="740" width="80" height="80" as="geometry" />
        </mxCell>
        <mxCell id="FcOtWMT2dwPaxTevbI-8-45" value="" style="curved=1;endArrow=classic;html=1;exitX=0.25;exitY=1;exitDx=0;exitDy=0;entryX=0.973;entryY=0.708;entryDx=0;entryDy=0;entryPerimeter=0;" edge="1" parent="WIyWlLk6GJQsqaUBKTNV-1" source="FcOtWMT2dwPaxTevbI-8-3" target="FcOtWMT2dwPaxTevbI-8-44">
          <mxGeometry width="50" height="50" relative="1" as="geometry">
            <mxPoint x="600" y="880" as="sourcePoint" />
            <mxPoint x="650" y="830" as="targetPoint" />
            <Array as="points">
              <mxPoint x="600" y="860" />
            </Array>
          </mxGeometry>
        </mxCell>
        <mxCell id="FcOtWMT2dwPaxTevbI-8-47" value="Adding new staff user&amp;nbsp;" style="edgeLabel;html=1;align=center;verticalAlign=middle;resizable=0;points=[];rotation=0;" vertex="1" connectable="0" parent="FcOtWMT2dwPaxTevbI-8-45">
          <mxGeometry x="-0.1208" y="-1" relative="1" as="geometry">
            <mxPoint x="-65" y="-12" as="offset" />
          </mxGeometry>
        </mxCell>
        <mxCell id="FcOtWMT2dwPaxTevbI-8-46" value="" style="curved=1;endArrow=classic;html=1;exitX=0.032;exitY=0.718;exitDx=0;exitDy=0;exitPerimeter=0;entryX=1;entryY=0;entryDx=0;entryDy=0;" edge="1" parent="WIyWlLk6GJQsqaUBKTNV-1" source="FcOtWMT2dwPaxTevbI-8-44" target="FcOtWMT2dwPaxTevbI-8-19">
          <mxGeometry width="50" height="50" relative="1" as="geometry">
            <mxPoint x="470" y="960" as="sourcePoint" />
            <mxPoint x="520" y="910" as="targetPoint" />
            <Array as="points">
              <mxPoint x="410" y="920" />
            </Array>
          </mxGeometry>
        </mxCell>
        <mxCell id="FcOtWMT2dwPaxTevbI-8-48" value="Inserting new staff user" style="edgeLabel;html=1;align=center;verticalAlign=middle;resizable=0;points=[];rotation=87;" vertex="1" connectable="0" parent="FcOtWMT2dwPaxTevbI-8-46">
          <mxGeometry x="0.0288" y="6" relative="1" as="geometry">
            <mxPoint x="-11" y="-13" as="offset" />
          </mxGeometry>
        </mxCell>
        <mxCell id="FcOtWMT2dwPaxTevbI-8-51" value="View Data" style="ellipse;whiteSpace=wrap;html=1;aspect=fixed;" vertex="1" parent="WIyWlLk6GJQsqaUBKTNV-1">
          <mxGeometry x="700" y="600" width="80" height="80" as="geometry" />
        </mxCell>
        <mxCell id="FcOtWMT2dwPaxTevbI-8-52" value="" style="curved=1;endArrow=classic;html=1;exitX=0.381;exitY=0.013;exitDx=0;exitDy=0;entryX=0.75;entryY=1;entryDx=0;entryDy=0;exitPerimeter=0;" edge="1" parent="WIyWlLk6GJQsqaUBKTNV-1" source="FcOtWMT2dwPaxTevbI-8-51" target="FcOtWMT2dwPaxTevbI-8-4">
          <mxGeometry width="50" height="50" relative="1" as="geometry">
            <mxPoint x="750" y="480" as="sourcePoint" />
            <mxPoint x="700" y="530" as="targetPoint" />
            <Array as="points">
              <mxPoint x="700" y="480" />
            </Array>
          </mxGeometry>
        </mxCell>
        <mxCell id="FcOtWMT2dwPaxTevbI-8-55" value="" style="endArrow=none;html=1;" edge="1" parent="WIyWlLk6GJQsqaUBKTNV-1">
          <mxGeometry width="50" height="50" relative="1" as="geometry">
            <mxPoint x="390" y="1000" as="sourcePoint" />
            <mxPoint x="740" y="1000" as="targetPoint" />
          </mxGeometry>
        </mxCell>
        <mxCell id="FcOtWMT2dwPaxTevbI-8-56" value="" style="endArrow=classic;html=1;entryX=0.625;entryY=1;entryDx=0;entryDy=0;entryPerimeter=0;" edge="1" parent="WIyWlLk6GJQsqaUBKTNV-1" target="FcOtWMT2dwPaxTevbI-8-51">
          <mxGeometry width="50" height="50" relative="1" as="geometry">
            <mxPoint x="740" y="1000" as="sourcePoint" />
            <mxPoint x="720" y="910" as="targetPoint" />
          </mxGeometry>
        </mxCell>
        <mxCell id="FcOtWMT2dwPaxTevbI-8-57" value="Text" style="edgeLabel;html=1;align=center;verticalAlign=middle;resizable=0;points=[];" vertex="1" connectable="0" parent="FcOtWMT2dwPaxTevbI-8-56">
          <mxGeometry x="-0.6253" y="5" relative="1" as="geometry">
            <mxPoint as="offset" />
          </mxGeometry>
        </mxCell>
        <mxCell id="FcOtWMT2dwPaxTevbI-8-58" value="Query for reading data" style="edgeLabel;html=1;align=center;verticalAlign=middle;resizable=0;points=[];rotation=-88;" vertex="1" connectable="0" parent="FcOtWMT2dwPaxTevbI-8-56">
          <mxGeometry x="-0.6317" relative="1" as="geometry">
            <mxPoint y="-51" as="offset" />
          </mxGeometry>
        </mxCell>
        <mxCell id="FcOtWMT2dwPaxTevbI-8-59" value="" style="endArrow=classic;html=1;entryX=1;entryY=0;entryDx=0;entryDy=0;exitX=0;exitY=1;exitDx=0;exitDy=0;" edge="1" parent="WIyWlLk6GJQsqaUBKTNV-1" source="FcOtWMT2dwPaxTevbI-8-51" target="FcOtWMT2dwPaxTevbI-8-3">
          <mxGeometry width="50" height="50" relative="1" as="geometry">
            <mxPoint x="680" y="510" as="sourcePoint" />
            <mxPoint x="730" y="460" as="targetPoint" />
          </mxGeometry>
        </mxCell>
        <mxCell id="FcOtWMT2dwPaxTevbI-8-60" value="Edit Data" style="ellipse;whiteSpace=wrap;html=1;aspect=fixed;" vertex="1" parent="WIyWlLk6GJQsqaUBKTNV-1">
          <mxGeometry x="580" y="850" width="80" height="80" as="geometry" />
        </mxCell>
        <mxCell id="FcOtWMT2dwPaxTevbI-8-61" value="" style="endArrow=classic;html=1;exitX=0.688;exitY=1.018;exitDx=0;exitDy=0;exitPerimeter=0;" edge="1" parent="WIyWlLk6GJQsqaUBKTNV-1" source="FcOtWMT2dwPaxTevbI-8-3" target="FcOtWMT2dwPaxTevbI-8-60">
          <mxGeometry width="50" height="50" relative="1" as="geometry">
            <mxPoint x="680" y="740" as="sourcePoint" />
            <mxPoint x="730" y="690" as="targetPoint" />
          </mxGeometry>
        </mxCell>
        <mxCell id="FcOtWMT2dwPaxTevbI-8-62" value="" style="curved=1;endArrow=classic;html=1;entryX=1;entryY=0.25;entryDx=0;entryDy=0;exitX=0.068;exitY=0.682;exitDx=0;exitDy=0;exitPerimeter=0;" edge="1" parent="WIyWlLk6GJQsqaUBKTNV-1" source="FcOtWMT2dwPaxTevbI-8-60" target="FcOtWMT2dwPaxTevbI-8-19">
          <mxGeometry width="50" height="50" relative="1" as="geometry">
            <mxPoint x="540" y="890" as="sourcePoint" />
            <mxPoint x="490" y="940" as="targetPoint" />
            <Array as="points">
              <mxPoint x="520" y="930" />
              <mxPoint x="540" y="940" />
            </Array>
          </mxGeometry>
        </mxCell>
        <mxCell id="FcOtWMT2dwPaxTevbI-8-63" value="Update query for changing data" style="edgeLabel;html=1;align=center;verticalAlign=middle;resizable=0;points=[];" vertex="1" connectable="0" parent="FcOtWMT2dwPaxTevbI-8-62">
          <mxGeometry x="0.0574" y="-3" relative="1" as="geometry">
            <mxPoint as="offset" />
          </mxGeometry>
        </mxCell>
      </root>
    </mxGraphModel>
  </diagram>
</mxfile>
